<svg xmlns="http://www.w3.org/2000/svg" width="1000" height="158.588" fill="none" viewBox="0 0 1000 158.588"><path fill="#34a853" d="M999.254 149.56c-.086-.546-.17-1.086-.261-1.626a132.867 132.867 0 0 0-2.034-9.928 133.566 133.566 0 0 0-11.303-29.985 135.285 135.285 0 0 0-9.738-15.887 134.237 134.237 0 0 0-14.709-17.325 134.646 134.646 0 0 0-23.677-18.77c.052-.084.095-.175.147-.26 2.692-4.651 5.392-9.297 8.084-13.948l7.897-13.623c1.896-3.26 3.787-6.525 5.67-9.785a12.276 12.276 0 0 0 .69-10.93 12.163 12.163 0 0 0-5.027-5.771 12.353 12.353 0 0 0-5.218-1.678 12.471 12.471 0 0 0-2.311.02 12.237 12.237 0 0 0-9.349 6.044c-1.891 3.259-3.782 6.525-5.67 9.784l-7.897 13.624c-2.692 4.651-5.392 9.296-8.084 13.948-.294.507-.591 1.015-.884 1.529-.409-.163-.813-.326-1.222-.482-14.843-5.66-30.948-8.756-47.782-8.756-.46 0-.916 0-1.38.006-14.967.15-29.347 2.752-42.763 7.423-1.55.54-3.085 1.113-4.607 1.711-.274-.474-.555-.95-.825-1.424-2.692-4.652-5.392-9.297-8.084-13.949l-7.897-13.623a4140.11 4140.11 0 0 1-5.67-9.785A12.234 12.234 0 0 0 783.69.05c-1.832.157-3.62.723-5.222 1.68a12.214 12.214 0 0 0-4.25 4.235 12.045 12.045 0 0 0-.773 1.535 12.31 12.31 0 0 0-.38 8.536c.27.82.618 1.62 1.066 2.394 1.895 3.26 3.786 6.525 5.67 9.784 2.636 4.542 5.269 9.083 7.901 13.624 2.692 4.651 5.388 9.296 8.08 13.948.02.039.048.078.068.117a134.67 134.67 0 0 0-15.475 11.21 135.198 135.198 0 0 0-23.142 25.034 133.16 133.16 0 0 0-9.737 15.887 133.682 133.682 0 0 0-11.303 29.985 136.29 136.29 0 0 0-2.034 9.928c-.091.54-.175 1.086-.258 1.626a130.315 130.315 0 0 0-.769 5.875H1000a136.2 136.2 0 0 0-.765-5.875z"/><path fill="#ffffff" d="M935.982 118.54c5.34-3.555 6.117-11.78 1.732-18.37-4.38-6.59-12.262-9.05-17.599-5.495-5.34 3.555-6.117 11.78-1.732 18.369 4.38 6.59 12.262 9.05 17.599 5.495zM814.983 113.067c4.385-6.59 3.608-14.814-1.732-18.369-5.34-3.555-13.219-1.095-17.604 5.495-4.38 6.59-3.603 14.814 1.733 18.369 5.34 3.555 13.222 1.095 17.603-5.495zM601.135 105.462c0-17.908 12.925-32.035 29.232-32.035s28.237 13.729 28.237 32.035c0 18.305-12.128 32.433-28.237 32.433-16.108 0-29.232-14.326-29.232-32.433zm-56.076 49.942h22.868V55.917H545.06Zm-3.58-132.716c0 8.556 6.962 15.52 15.113 15.52s14.915-6.964 14.915-15.52c0-7.959-6.764-14.724-14.915-14.724s-15.113 6.765-15.113 14.724zm-89.682 82.575c0-17.908 13.123-31.836 30.025-31.836 16.905 0 30.028 13.928 30.028 31.836 0 17.907-13.325 32.632-30.028 32.632s-30.025-14.526-30.025-32.632zm-23.269 0c0 29.846 23.467 53.325 53.294 53.325 29.83 0 53.293-23.479 53.293-53.325 0-29.847-23.066-52.53-53.293-52.53-30.223 0-53.294 22.882-53.294 52.53zm-61.841 50.141h22.868v-52.131c0-20.694 10.935-29.846 29.232-29.846 3.378 0 5.967.199 8.35.796V54.126c-2.383-.796-6.562-1.393-11.133-1.393-31.024 0-49.317 19.5-49.317 50.54zm-91.672-49.942c0-17.908 12.926-32.035 29.232-32.035 16.307 0 28.237 13.729 28.237 32.035 0 18.305-12.128 32.433-28.237 32.433-16.108 0-29.232-14.326-29.232-32.433zm-23.266 0c0 28.85 23.067 53.126 50.31 53.126 11.334 0 21.674-4.577 27.84-12.138h.995v8.954h22.868V.005h-22.868v64.07h-.995c-5.967-7.163-16.307-11.342-27.84-11.342-27.442 0-50.31 24.076-50.31 52.729zm-100.222 49.942h22.868v-58.3c0-13.927 9.346-23.677 22.271-23.677 12.926 0 22.272 9.75 22.272 23.678v58.3h22.869v-58.3c0-24.275-19.29-44.372-45.14-44.372-25.852 0-45.14 20.097-45.14 44.372zM46.532 95.712 71.19 25.076h1.193L97.04 95.712ZM0 155.404h25.851l12.925-37.009h66.02l12.925 37.01h25.851L86.104.004H57.469Zm628.179 3.184c11.335 0 21.675-4.577 27.84-12.138h.995v8.954h22.868V.005h-22.868v64.07h-.995c-5.967-7.163-16.307-11.342-27.84-11.342-27.44 0-50.308 24.076-50.308 52.729 0 28.652 23.066 53.126 50.308 53.126z"/></svg>