<?xml version="1.0" encoding="UTF-8"?>
<svg width="600" height="110" version="1.1" xmlns="http://www.w3.org/2000/svg">
 <path d="m90.43 96.39c0 1.428-1.0921 2.5991-2.4376 2.5991h-75.555c-1.3381 0-2.4339-1.171-2.4339-2.5991v-82.8c0-1.4262 1.0958-2.5991 2.4339-2.5936l75.555-2e-3c1.3454 0 2.4376 1.1692 2.4376 2.5972z" fill="#ed1c24"/>
 <path d="m82.53 90.16 0.13766-4e-3c0.15969 4e-3 0.28634-0.0514 0.28634-0.17988 0-0.12114-0.0826-0.1964-0.26248-0.1964-0.0771 0-0.12665 4e-3 -0.16152 0.0165zm-6e-3 0.71401h-0.28633v-1.2628c0.1138-0.0239 0.27165-0.0495 0.47539-0.0495 0.23311 0 0.3414 0.0404 0.42951 0.10278 0.0679 0.0532 0.11747 0.15419 0.11747 0.27166 0 0.14684-0.10279 0.25146-0.2533 0.30102l2e-3 0.0165c0.1193 0.0422 0.18905 0.14317 0.22209 0.3102 0.0386 0.1964 0.0642 0.27165 0.0918 0.3102h-0.3047c-0.0385-0.0477-0.0642-0.15418-0.0991-0.30286-0.0239-0.13766-0.10096-0.2019-0.25514-0.2019h-0.1395zm0.19457-1.674c-0.54698-4e-3 -0.9563 0.45337-0.9563 1.0169s0.40932 1.0132 0.96731 1.0132c0.5378 9e-3 0.93794-0.44786 0.93794-1.0132 0-0.55983-0.3983-1.0205-0.94712-1.0205zm0.011-0.2588c0.70483-2e-3 1.2536 0.569 1.2536 1.2757 2e-3 0.71952-0.54882 1.2775-1.2647 1.2775-0.70851 0-1.2683-0.55799-1.2683-1.2775 0-0.70667 0.55983-1.2775 1.2683-1.2757zm-6.3654-8.449c0-3.515 6e-3 -7.03-9e-3 -10.545-2e-3 -0.37812 0.0863-0.49926 0.47724-0.48458 0.86635 0.0312 1.7345 0.0202 2.6009 6e-3 0.29735-6e-3 0.42951 0.0459 0.42951 0.3928-0.011 7.0795-9e-3 14.157-2e-3 21.237 2e-3 0.32488-0.0936 0.41666-0.41482 0.40748-0.86636-0.0202-1.7346-0.0349-2.5991 6e-3 -0.43685 0.0202-0.49192-0.1395-0.49192-0.52312 0.0147-3.4985 9e-3 -6.9969 9e-3 -10.495m-36.421 1.6912c0 2.9442-6e-3 5.8883 7e-3 8.8324 2e-3 0.36343-0.0624 0.51394-0.46989 0.49375-0.75256-0.0367-1.507-0.0349-2.2577 0-0.42951 0.0184-0.57084-0.0808-0.569-0.54882 0.0183-4.7246 0.011-9.4528 0.011-14.177 0-1.1784-0.0129-2.3568 9e-3 -3.5334 7e-3 -0.35241-0.10279-0.43501-0.44052-0.4295-1.2426 0.0202-2.4871-2e-3 -3.7297 0.0165-0.32122 4e-3 -0.45888-0.0459-0.44603-0.41483 0.0294-0.86452 0.0202-1.7327 4e-3 -2.5991-6e-3 -0.27716 0.0753-0.35609 0.35425-0.35609 3.928 9e-3 7.8541 7e-3 11.78 2e-3 0.22943 0 0.35792 0.022 0.35241 0.30836-0.0183 0.91592-0.0183 1.8318 0 2.7478 6e-3 0.28634-0.11931 0.3102-0.34874 0.30837-1.2757-9e-3 -2.5532 7e-3 -3.8289-0.0129-0.34324-6e-3 -0.43685 0.0881-0.43502 0.43318 0.0128 2.9772 7e-3 5.9525 7e-3 8.9297m10.674-7.4909c-0.0312-2e-3 -0.0624-5e-3 -0.0936-9e-3 -0.7856 2.7165-1.573 5.4331-2.3715 8.1937 1.5602 0 3.0616-4e-3 4.5612 4e-3 0.27716 2e-3 0.23311-0.12849 0.18355-0.30286-0.7599-2.6266-1.5198-5.255-2.2797-7.8853m-8.4158 16.861c0.36343-1.2592 0.71034-2.4632 1.0609-3.6673 1.5877-5.4698 3.1736-10.941 4.7668-16.411 0.36159-1.2371 1.3418-2.0044 2.5312-2.0117 1.1839-7e-3 2.1732 0.76357 2.5385 2.0062 1.6336 5.5946 3.2617 11.189 4.8934 16.784 0.28266 0.97099 0.55799 1.9438 0.85167 2.913 0.0863 0.28266 0.0753 0.40381-0.279 0.39463-0.89939-0.0239-1.8006-0.0239-2.7 0-0.31387 9e-3 -0.41666-0.12114-0.49375-0.39096-0.44603-1.5877-0.91775-3.1681-1.3546-4.7558-0.0863-0.31938-0.22393-0.40197-0.53597-0.40014-1.9493 0.0128-3.8968 0.0165-5.8442-2e-3 -0.33589-4e-3 -0.44235 0.12481-0.52495 0.41298-0.4497 1.5859-0.92509 3.1644-1.3674 4.7521-0.0826 0.29184-0.19823 0.38729-0.49926 0.38178-0.99484-0.0183-1.9915-5e-3 -3.0433-5e-3m-15.955-17.075c-0.80762 2.7881-1.5694 5.4276-2.3403 8.0615-0.0844 0.2845 0.0532 0.28817 0.26247 0.28634 1.3711-4e-3 2.7441-9e-3 4.117 4e-3 0.32855 4e-3 0.37444-0.0753 0.28083-0.38913-0.5378-1.7951-1.0536-3.5958-1.5767-5.3964-0.23494-0.80762-0.46805-1.6152-0.74338-2.566m8.3882 17.021c-1.1123 0-2.1732-4e-3 -3.2342 2e-3 -0.29551 2e-3 -0.27532-0.2276-0.32672-0.40198-0.45704-1.5675-0.91775-3.1332-1.3601-4.7044-0.0844-0.30469-0.1909-0.44419-0.55065-0.43868-1.9475 0.0239-3.8949 0.0202-5.8424 4e-3 -0.32488-2e-3 -0.44419 0.10462-0.53046 0.41115-0.44419 1.5859-0.92326 3.1644-1.3693 4.7503-0.0789 0.28267-0.18722 0.39463-0.49375 0.38546-0.86636-0.0202-1.7346-0.0294-2.6009 2e-3 -0.44052 0.0165-0.42216-0.12848-0.32121-0.47539 1.0095-3.4452 1.9989-6.896 2.9992-10.345 0.89572-3.0873 1.797-6.1728 2.6982-9.2601 0.36159-1.2335 1.316-1.9915 2.5256-2.0172 1.1674-0.0257 2.1898 0.74154 2.5568 1.9842 0.9251 3.1314 1.8282 6.2664 2.7404 9.4014 1.0114 3.4783 2.0246 6.9566 3.0359 10.435 0.0183 0.0624 0.0349 0.12298 0.0734 0.26798m39.988 0c-1.2867 0-2.4651-5e-3 -3.6416 4e-3 -0.21108 2e-3 -0.32121-0.0844-0.42951-0.24962-1.6354-2.4834-3.2727-4.9669-4.9173-7.4448-0.81863-1.2335-0.72135-3.2617 1.305-3.9353 0.66996-0.22209 1.2683-0.60204 1.8153-1.0554 1.373-1.1398 1.696-2.4889 1.1086-4.2804-0.3359-1.0224-1.373-1.7125-2.4522-1.7217-0.80212-9e-3 -1.6042-4e-3 -2.4063-2e-3 -0.73237 2e-3 -0.96181 0.23127-0.96364 0.96915 0 5.6937-6e-3 11.386 0.011 17.079 2e-3 0.48825-0.0881 0.68648-0.62774 0.64977-0.76541-0.0514-1.5363-0.022-2.3054-7e-3 -0.28267 6e-3 -0.39831-0.044-0.39831-0.36894 0.011-6.3472 4e-3 -12.694 0.0129-19.042 2e-3 -1.2592 1.0114-2.4853 2.2668-2.5715 1.7437-0.12115 3.515-0.21109 5.244 0.0275 3.0983 0.42951 5.1669 2.9662 5.1871 6.1728 7e-3 1.1821-0.10096 2.3531-0.59838 3.4508-0.45887 1.0132-1.1564 1.8116-2.1053 2.3917-0.32121 0.19823-0.6461 0.38729-0.95997 0.5947-0.65344 0.42767-0.76357 0.93243-0.33773 1.5712 1.2408 1.863 2.4871 3.7242 3.7316 5.5854 0.46805 0.70116 0.93794 1.4023 1.4611 2.1824m-16.15-68.959c0.17804 4.7081 0.51027 9.3978 1.3858 14.036 0.97098 5.1486 2.9129 9.8603 6.3178 13.889 3.4159 4.0436 7.6889 6.7326 12.891 7.8835 0.85167 0.18906 0.85167 0.18722 0.85167 1.0517 0 1.9291-0.0129 3.8601 9e-3 5.791 6e-3 0.41666-0.0863 0.5323-0.51027 0.45521-6.0645-1.0774-11.378-3.5939-15.833-7.9294-3.6894-3.5902-6.193-7.8119-7.3916-12.803-0.55249-2.3091-0.74705-4.6769-0.94529-7.0392-0.55615-6.6262-0.38545-13.267-0.41849-19.904-2e-3 -0.35425 0.0679-0.48641 0.45153-0.47356 0.91592 0.0294 1.8337 0.0294 2.7496 0 0.38912-0.0128 0.45336 0.13032 0.44969 0.47907-0.0183 1.5216-7e-3 3.0414-7e-3 4.5631m-13.342 5.3749c-0.0202 3.3645-0.21291 8.1111-0.69565 12.849-0.50844 4.9742-2.0062 9.585-5.0788 13.585-4.7833 6.2242-11.077 9.9778-18.821 11.298-0.3671 0.0624-0.55065 0.0496-0.54514-0.42584 0.0294-2.0943 0.0202-4.1886 4e-3 -6.2811-2e-3 -0.31755 0.0753-0.44052 0.40014-0.5066 6.2646-1.2426 11.119-4.6383 14.783-9.7906 2.6082-3.6692 4.1336-7.7954 4.943-12.201 0.80395-4.3814 1.16-8.8067 1.3014-13.254 0.0551-1.7492 0.0587-3.4966 0.0496-5.2459-2e-3 -0.33957 0.0881-0.4497 0.43502-0.44052 0.93243 0.022 1.8649 0.022 2.7973 0 0.34141-9e-3 0.43685 0.0881 0.43502 0.43318-0.0129 2.8634-7e-3 5.7249-7e-3 9.9815m1.4734 13.705c0-7.8523 4e-3 -15.703-9e-3 -23.555-2e-3 -0.43135 0.0863-0.57635 0.55065-0.56901 1.8979 0.0294 3.7958 0.0202 5.6937 4e-3 0.36343-2e-3 0.5066 0.0624 0.5066 0.4754-0.011 15.752-0.011 31.505-2e-3 47.257 0 0.37994-0.0936 0.49742-0.48641 0.49191-1.9144-0.0202-3.8307-0.0257-5.7451 4e-3 -0.46438 9e-3 -0.51761-0.15235-0.51761-0.55249 0.011-7.8523 9e-3 -15.705 9e-3 -23.555" fill="#fff"/>
 <path d="m546.63 74.84h0.46072v0.0422l7.8009-0.0422v-37.105h-8.2616zm-79.182-7.922c-0.66813 0.77458-1.5492 1.1637-2.6174 1.1637l-12.09 0.044-2e-3 -8.4268 11.848 2e-3c1.1215-2e-3 2.0576 0.43685 2.7808 1.3032 0.7397 0.89205 1.1013 1.9108 1.1013 3.1185-2e-3 1.0903-0.33956 2.0319-1.0205 2.7955m-14.506-22.028 11.09-2e-3c1.1582-2e-3 2.1218 0.45153 2.8615 1.3418 0.74523 0.88104 1.1233 1.9548 1.1233 3.1901 0 1.1398-0.33038 2.0925-0.99667 2.9093-0.66629 0.80395-1.5198 1.2133-2.5385 1.2133l-11.54-0.0129zm23.135 14.53c-1.0334-1.395-2.4743-2.4541-4.2767-3.146 1.7658-0.82965 3.1204-1.9823 4.0051-3.4287 0.90673-1.4757 1.3656-3.203 1.3656-5.1357v-0.62958c-2e-3 -0.20925-0.0165-0.4185-0.0477-0.62591-0.27166-2.5293-1.373-4.5998-3.2672-6.1563-1.8942-1.5547-4.1648-2.3476-6.7528-2.3476l-22.008 0.0441 0.0422 35.133v1.1766h2e-3v0.0404h22.88c2.6413 0 4.9375-0.9618 6.8262-2.8634 1.8814-1.9071 2.8322-4.2602 2.8322-6.9914 2e-3 -1.9475-0.53964-3.6508-1.6006-5.0697m92.739-21.628-13.755 18.236 13.269 18.854h10.912l-15.047-18.792 15.556-18.315zm-76.985 22.797 4.5484-11.123 4.4731 11.123zm8.1625-21.85c-1.1252-0.72319-2.3458-1.0811-3.649-1.0811-1.2665 0-2.4779 0.35975-3.6104 1.0811-1.1435 0.71217-1.942 1.6703-2.4247 2.8579l-13.785 33.667h9.2913l3.3792-8.2598h14.326l3.3718 8.2598h9.2216l-13.695-33.667c-0.47173-1.1876-1.2757-2.1457-2.4265-2.8579m29.458 29.337c-2.2412 0-4.0051-1.1692-5.244-3.4746-1.0793-1.9585-1.6208-4.3905-1.6208-7.23 0-3.37 0.42951-6.1159 1.2702-8.1698 1.0664-2.6541 2.812-3.9996 5.189-3.9996l14.831-0.0459-0.0477-7.5806h-14.229c-2.3219 0-4.6365 0.47906-6.8703 1.417-2.8762 1.2096-5.1229 4.0675-6.6776 7.3952-1.4207 3.0231-2.1439 6.5326-2.1402 10.437 0 4.0399 0.80395 8.3185 2.3917 11.371 1.7639 3.3681 4.1831 5.5469 7.1897 6.4812 1.5271 0.45154 3.1222 0.68281 4.7448 0.68281l15.741 2e-3 -0.0477-7.2851zm-411.16-7.5586 4.5539-11.121 4.4768 11.121zm8.1735-21.852c-1.138-0.71768-2.3623-1.0774-3.6563-1.0774-1.2683 0-2.4761 0.36159-3.6086 1.0774-1.1398 0.71584-1.9475 1.6721-2.4229 2.8634l-13.79 33.669h9.2968l3.3736-8.2634h14.324l3.3608 8.2634h9.2399l-13.702-33.669c-0.46989-1.1912-1.2794-2.1475-2.4155-2.8634m41.653 6.8299s0-3.0267-0.0441-4.0711c0-2.2228-1.797-4.0234-4.0234-4.0234h-24.866c-2.2228 0-4.0326 1.8006-4.0326 4.0234 0 1.4941 0.0128 4.2437 0.0128 4.0142 0 0 1.127 0.0165 1.8704 0.0165h9.6309v29.783l8.603-2e-3v-29.781h8.781c1.2096 0 3.8894 0.0697 4.0675 0.0404m417.59-7.3182-0.6204 2e-3v-1.0609h0.65161c0.34507 0 0.54881 0 0.61856 0.0128 0.12666 0.0257 0.23678 0.0826 0.31387 0.16703 0.0716 0.0808 0.1138 0.1964 0.1138 0.34507 0 0.11747-0.0275 0.22393-0.0936 0.3102-0.0532 0.0863-0.13032 0.14868-0.22944 0.18172-0.0991 0.0275-0.34874 0.044-0.75439 0.0422m1.2922 0.91959c-0.12482-0.13216-0.26799-0.24596-0.4497-0.35425 0.35976-0.0477 0.63692-0.17805 0.82414-0.38362 0.18538-0.20191 0.2735-0.46071 0.2735-0.77275 0-0.25146-0.0606-0.46805-0.18723-0.65527-0.11931-0.1964-0.28084-0.33406-0.47722-0.40198-0.19825-0.0771-0.52679-0.11563-0.97099-0.11563l-1.7749-2e-3v4.1776h0.84802l2e-3 -1.7456h0.1652c0.19089 0 0.33957 0.0184 0.42584 0.0514 0.0863 0.0239 0.1707 0.0826 0.24963 0.17071 0.0808 0.0844 0.2276 0.28266 0.43685 0.60388l0.61857 0.91958h1.0058l-0.50843-0.81496c-0.20558-0.32855-0.36343-0.55249-0.4809-0.6773m-1.1178 3.0121c-1.8557 0-3.3718-1.5124-3.3718-3.37 0-1.8667 1.5161-3.381 3.3718-3.381 1.8649 0 3.3792 1.5143 3.3792 3.381 0 1.8594-1.5143 3.37-3.3792 3.37m2e-3 -7.4852c-2.2687 0-4.1115 1.8428-4.1115 4.1152 0 2.2613 1.8428 4.1005 4.1097 4.1005 2.2705 0 4.1134-1.8392 4.1152-4.1005-2e-3 -2.2742-1.8447-4.1152-4.1134-4.1152m-306.6 10.284c1.1766-0.33957 3.3149-0.33957 6.0204-0.33957l11.384-0.0385-0.0385-6.9988-10.595 4e-3c-6.5436 0-11.34 0.92142-14.247 2.7404-2.4504 1.5088-4.1519 3.8197-5.055 6.8831-0.47355 1.7254-0.70299 3.2452-0.70483 4.653l0.044 23.441h8.0634l-0.0404-15.591v-0.5066l22.573-0.0422-0.0422-6.2168-22.676 0.0404c0-1.8025 0.31938-3.3773 0.97832-4.8182 0.87187-1.8942 2.1953-2.5899 4.3355-3.2103m65.149 15.613 4.5465-11.123 4.4768 11.123zm8.1643-21.853c-1.1325-0.71768-2.3513-1.0793-3.6526-1.0793-1.2702 0-2.4779 0.36159-3.6049 1.0793-1.1509 0.71585-1.9493 1.6721-2.4284 2.8616l-13.783 33.669h9.2895l3.3792-8.2653h14.324l3.37 8.2653h9.2234l-13.695-33.669c-0.46622-1.1894-1.2794-2.1457-2.4229-2.8616m-35.866 29.168c-1.595 0-2.9276-0.17254-3.9702-0.51027-1.0517-0.34875-1.9768-1.0884-2.7532-2.1916-0.57268-0.75439-0.97282-1.5253-1.1912-2.2999-0.21843-0.77091-0.33406-1.6942-0.33406-2.7404l-0.0385-22.239-8.6691 0.0441v23.97c0 1.2316 0.0881 2.3531 0.26248 3.3296 0.17805 0.96915 0.49559 1.9805 0.93794 3.0102 1.1766 2.711 3.1534 4.653 5.8681 5.7727 2.1163 0.86819 4.9889 1.3106 8.5369 1.3142l12.166-0.0477-0.0385-7.4099zm76.904-15.761h-10.868c-1.25 0-2.2797-0.41115-3.1552-1.2628-0.94896-0.90857-1.4005-1.5565-1.3216-2.711 0.18905-2.7386 3.2856-3.3296 4.0363-3.3296l20.018-2e-3 9e-3 -7.4705h-22.703c-3.4159 0-6.204 1.0279-8.291 3.0616-2.0906 2.0337-3.1516 4.7172-3.1516 7.9734-2e-3 2.9368 1.0976 5.7451 3.2342 7.6577 2.1402 1.9126 4.664 2.8762 7.5017 2.8762h9.875c1.9934 0 3.5021 0.39464 4.497 1.1619 0.99117 0.76907 1.4794 1.5914 1.4776 3.1222 0 1.3803-1.8245 3.4562-4.7925 3.704h-19.587v8.3515l23.746 6e-3c3.0084-6e-3 5.5194-1.1123 7.4558-3.291 1.9511-2.2026 2.9386-6.2609 2.9386-9.4473 0-3.113-0.982-5.6497-2.9203-7.5494-1.9199-1.8869-4.6126-2.8505-7.9991-2.8505m-166.11 2.678c2.2265-2.109 2.6229-4.3006 2.41-7.1401-0.20374-2.7477-1.5804-5.2899-4.4456-7.2833-2.8579-1.9805-5.7011-2.8469-9.3831-2.8469h-9.8144c-1.4721 0-2.7588 0.41666-3.8692 1.239-1.0995 0.83883-1.6556 1.7951-1.6556 2.9001v33.536h8.5938v-31.242l6.7455-2e-3c5.1559 0.0734 5.9636 3.2066 6.0058 4.2767 0.0697 1.8979-1.2261 2.8267-3.3443 3.8601-1.9585 0.83515-2.9019 1.1527-5.0954 2.3843-2.1163 1.1876-3.1993 2.6652-3.1993 4.5062 0 0.97833 0.65344 2.957 1.7474 4.2749l9.7172 11.942h10.027l-12.67-15.91c3.3571-0.89205 6.0021-2.388 8.2304-4.4951m212.34-17.568h-2e-3v-0.0459l-8.436 0.0422 0.044 15.207h-14.075l-0.0404-14.3v-0.90306h-4e-3v-0.0459l-8.7645 0.0422 0.0404 37.453 8.4929-0.0404h0.23496v-2e-3h0.0422l-0.0422-13.976v-0.0294h14.073l-2e-3 14.049 8.2047-0.0422h0.22944v-2e-3h0.0441l-0.0404-36.433zm-264.7 23.333 4.5502-11.121 4.4731 11.121zm8.1662-21.852c-1.1288-0.71768-2.3513-1.0774-3.649-1.0774-1.272 0-2.4816 0.36159-3.6141 1.0774-1.1435 0.71584-1.9401 1.6721-2.4229 2.8634l-13.783 33.669h9.2858l3.3792-8.2634h14.33l3.3682 8.2634h9.2234l-13.693-33.669c-0.47172-1.1912-1.2775-2.1475-2.4247-2.8634m51.11 36.571h8.603l4e-3 -37.696h-8.6067z" fill="#ffffff"/>
</svg>
