<?xml version="1.0" encoding="utf-8"?>
<!-- Generator: Adobe Illustrator 24.1.0, SVG Export Plug-In . SVG Version: 6.00 Build 0)  -->
<svg version="1.1" id="Layer_1" xmlns="http://www.w3.org/2000/svg" xmlns:xlink="http://www.w3.org/1999/xlink" x="0px" y="0px"
	 viewBox="0 0 279.0966492 102" enable-background="new 0 0 279.0966492 102" xml:space="preserve">
<g>
	<g>
		<g>
			<rect id="rect3_2_" x="224.4208527" y="8.050293" fill="#ED1C24" width="13.6982422" height="86.1040039"/>
			<path id="path5_2_" fill="#ED1C24" d="M40.8061523,5.8691406c-4.315918,0-7.9960938,2.6738281-9.4208984,6.4946289v0.0712891
				L6.9760742,94.1542969h14.6313477l5.6381836-22.1962891H54.4375l5.9238281,22.1962891h14.987793L50.2983398,12.3637695
				h-0.0712891C48.7880859,8.5610352,45.1240234,5.8691406,40.8061523,5.8691406z M40.6630859,24.6391602l9.4208984,35.8286133
				H31.456543L40.6630859,24.6391602z"/>
			<path id="path7_2_" fill="#ED1C24" d="M58.2889328,7.7246094v11.5620117h21.2685547v74.8676758h13.703125V19.2866211h21.3393555
				V7.7246094H58.2889328z"/>
			<path id="path9_2_" fill="#ED1C24" d="M203.4404297,62.8896484c-0.3994141-0.6826172-0.640625-1.5029297-0.640625-2.4130859
				c0-0.8251953,0.2099609-1.5722656,0.5332031-2.2128906c0.5068359-0.8027344,1.4160156-1.2558594,2.0234375-1.6416016
				c7.1298828-4.3359375,12.1953125-13.4506836,12.1953125-24.0068359c0-14.15625-8.9082031-25.7558594-19.9589844-26.6503906
				c-1.3769531-0.1806641-4.4853516-0.1625977-4.4853516-0.1625977h-15.5898438h0.0087891
				c-5.40625,0-9.8046875,5.8564453-9.8046875,13.0693359l0.0175781,0.0224609v75.2495117h13.3154297V24.2646484h-0.0068359
				c0-2.1899414,1.3339844-3.9765625,2.9726563-3.9765625h8.984375c0.8134766,0,3.2539063,0.0625,3.7373047,0.1538086v0.0043945
				c3.9707031,0.4370117,7.2001953,4.2084961,8.1367188,9.2001953c0.0488281,0.2050781,0.0849609,0.4082031,0.1132813,0.6132813
				c0,0.0180664,0,0.0400391,0,0.0444336c0.0517578,0.3056641,0.078125,0.5981445,0.1054688,0.8945313
				c0.0488281,0.4619141,0.0556641,0.9345703,0.0556641,1.4165039c0,4.5966797-1.8984375,8.6176758-4.7128906,10.703125
				c-0.5664063,0.4526367-1.1601563,0.8452148-1.7792969,1.1845703c-0.4423828,0.2651367-0.9550781,0.5126953-1.4902344,0.753418
				c-3.5957031,1.690918-5.1337891,2.6899414-6.6328125,4.6123047c-1.6816406,2.3461914-2.7460938,5.5180664-2.7744141,9.0219727
				c-0.0273438,3.2919922,0.8339844,6.3007813,2.296875,8.6337891l16.9150391,26.6298828h15.8398438l-19.3730469-31.2646484"/>
			<path id="path2852_2_" fill="#ED1C24" d="M130.4570313,5.8691406c-4.3134766,0-7.9956055,2.6738281-9.4208984,6.4946289
				v0.0712891L96.6274414,94.1542969h14.6308594l5.6381836-22.1962891h27.1923828l5.9238281,22.1962891H165l-25.0507813-81.7905273
				h-0.0712891C138.4375,8.5610352,134.7744141,5.8691406,130.4570313,5.8691406L130.4570313,5.8691406z M130.3139648,24.6391602
				l9.4213867,35.8286133h-18.6279297L130.3139648,24.6391602z"/>
		</g>
	</g>
	<g>
		<g>
			<path fill="#ED1C24" d="M270.1115112,94.0273438c-0.4921875,0-1.6337891-0.2900391-3.7255859-2.2265625
				c-1.7832031-1.6503906-3.5595703-3.3134766-5.3330078-4.9863281c-2.0009766-1.8916016-3.546875-2.7724609-4.8662109-2.7724609
				c-0.8017426,0-1.5449066,0.3193359-2.2099457,0.9521484c-0.6679688,0.6376953-1.0195313,1.4716797-1.0195313,2.4160156
				c0,0.9931641,0.3486328,1.8476563,1.0390625,2.5361328c0.4628906,0.4638672,1.0058594,0.7734375,1.6210938,0.9267578v3.0908203
				c-1.3896484-0.1953125-2.5917969-0.8310547-3.65625-1.9287109c-1.3066406-1.3496094-1.9433594-2.8847656-1.9433594-4.6943359
				c0-1.796875,0.6328125-3.2734375,1.9345703-4.5136719c1.3134766-1.2539063,2.8017578-1.8623047,4.5449066-1.8623047
				c1.8339844,0,3.6923828,0.8945313,5.5263672,2.6591797c2.0253906,1.9472656,3.9580078,3.8271484,5.7988281,5.6367188
				l1.5976563,1.5712891l0.0791016-9.8671875h2.8417969v11.765625c0,0.203125-0.2353516,0.4746094-0.6435547,0.7451172
				C271.1427612,93.8417969,270.6105347,94.0273438,270.1115112,94.0273438"/>
			<path fill="#ED1C24" d="M264.9972534,76.0253906c-0.4169922,0-1.578125-0.203125-4.6796875-1.5625
				c-2.4609375-1.0761719-4.9042816-2.2246094-7.2617035-3.4160156c-1.7558594-0.8847656-2.6152344-1.3330078-3.0371094-1.5585938
				v-3.5537109l8.7753754,4.1816406v-1.5039063c0-2.1474609,0.6142578-3.8652344,1.8769531-5.2519531
				c1.2402344-1.3613281,2.7802734-2.0224609,4.7060547-2.0224609c2.1142578,0,3.8300781,0.7470703,5.2451172,2.2851563
				c1.4365234,1.5605469,2.1337891,3.3740234,2.1337891,5.5419922c0,1.9580078-0.7548828,3.5458984-2.3066406,4.8544922
				C268.850769,75.3691406,267.0665894,76.0253906,264.9972534,76.0253906 M265.5509644,64.5185547
				c-1.171875,0-2.1894531,0.4091797-3.0253906,1.2167969c-0.8476563,0.8173828-1.2763672,1.8085938-1.2763672,2.9462891
				c0,1.1357422,0.4697266,2.1201172,1.3984375,2.9277344c0.8867188,0.7734375,1.8408203,1.1660156,2.8339844,1.1660156
				c1.2558594,0,2.2646484-0.3896484,3.0009766-1.15625c0.7236328-0.7548828,1.0917969-1.7548828,1.0917969-2.9726563
				c0-1.2607422-0.4101563-2.2792969-1.21875-3.0283203C267.5665894,64.8876953,266.6222534,64.5185547,265.5509644,64.5185547"/>
			<path fill="#ED1C24" d="M261.5421753,57.5390625c-3.2910156,0-6.003891-1.1230469-8.2929535-3.4326172
				c-2.2910156-2.3134766-3.4042969-4.9492188-3.4042969-8.0561523c0-3.0390625,1.1132813-5.6401367,3.4042969-7.9541016
				c2.2900391-2.3100586,4.8661957-3.434082,7.8779144-3.434082c2.9902344,0,5.5878906,1.0141602,7.9414063,3.097168
				c2.3193359,2.0537109,3.4462891,4.652832,3.4462891,7.9448242c0,3.2280273-0.9990234,5.9589844-3.0546875,8.3466797
				C267.4435425,56.3984375,264.8546753,57.5390625,261.5421753,57.5390625 M261.1271362,37.8442383
				c-2.0917969,0-3.9833984,0.8178711-5.6240082,2.4316406c-1.6445313,1.6181641-2.4775391,3.5141602-2.4775391,5.6352539
				c0,2.4047852,0.8730469,4.4448242,2.5957031,6.0649414c1.7079926,1.6040039,3.7001801,2.4174805,5.9208832,2.4174805
				c2.3447266,0,4.296875-0.8505859,5.8037109-2.5263672c1.4785156-1.6469727,2.2285156-3.6391602,2.2285156-5.9208984
				c0-2.2080078-0.7890625-4.1293945-2.3447266-5.7109375C265.6671753,38.6479492,263.6144409,37.8442383,261.1271362,37.8442383"/>
			<path fill="#ED1C24" d="M261.5421753,30.6904297c-3.2919922,0-6.0048676-1.1230469-8.2929535-3.4331055
				c-2.2910156-2.3129883-3.4042969-4.9487305-3.4042969-8.0556641c0-3.0390625,1.1132813-5.6401367,3.4042969-7.9541016
				c2.2900391-2.3100586,4.8671722-3.4331055,7.8779144-3.4331055c2.9902344,0,5.5888672,1.0131836,7.9414063,3.0961914
				c2.3193359,2.0537109,3.4462891,4.652832,3.4462891,7.9448242c0,3.2280273-0.9990234,5.9589844-3.0546875,8.3481445
				C267.4435425,29.550293,264.8546753,30.6904297,261.5421753,30.6904297 M261.1271362,10.9956055
				c-2.0917969,0-3.9824219,0.8178711-5.6240082,2.4321289c-1.6445313,1.6176758-2.4775391,3.5136719-2.4775391,5.6347656
				c0,2.4047852,0.8730469,4.4448242,2.5957031,6.0649414c1.7079926,1.6040039,3.7001801,2.4169922,5.9208832,2.4169922
				c2.3447266,0,4.296875-0.8500977,5.8037109-2.5258789c1.4785156-1.6469727,2.2285156-3.6391602,2.2285156-5.9208984
				c0-2.2080078-0.7890625-4.1289063-2.3447266-5.7109375C265.6671753,11.7993164,263.6144409,10.9956055,261.1271362,10.9956055"/>
		</g>
	</g>
	<g>
		<path d="M243.0684357,8.050293c0.354599,0,0.7001648,0.0907726,1.0383759,0.2734499
			c0.3376312,0.1818295,0.6006317,0.4417057,0.7895203,0.7804785c0.1883392,0.3387737,0.2827911,0.6922512,0.2827911,1.0593023
			c0,0.3642225-0.0933228,0.7140245-0.2788239,1.0499697c-0.1855164,0.3359451-0.4456635,0.5966702-0.7810516,0.7824574
			c-0.3348083,0.1852226-0.6848907,0.2779751-1.0508118,0.2779751s-0.7160034-0.0927525-1.050827-0.2779751
			c-0.3353729-0.1857872-0.5960999-0.4465122-0.7827301-0.7824574c-0.1860809-0.3359451-0.2793884-0.6857471-0.2793884-1.0499697
			c0-0.3670511,0.0944366-0.7205286,0.283905-1.0593023c0.1889038-0.3387728,0.4524536-0.598649,0.7906647-0.7804785
			C242.367691,8.1410656,242.7138214,8.050293,243.0684357,8.050293 M243.0684357,8.4006596
			c-0.2969208,0-0.5853577,0.0757856-0.8664551,0.2276402c-0.2805176,0.1521368-0.4999542,0.3693132-0.6588745,0.6526604
			c-0.1583557,0.2824993-0.2380981,0.5768757-0.2380981,0.8825636c0,0.3045559,0.0780487,0.5958214,0.2335663,0.8752098
			c0.1555328,0.2785406,0.3738403,0.4962826,0.6537933,0.6520958s0.5717926,0.2332954,0.8760681,0.2332954
			s0.5960999-0.0774822,0.8760529-0.2332954s0.4971313-0.3735552,0.6520996-0.6520958
			c0.1549683-0.2793884,0.2324371-0.5706539,0.2324371-0.8752098c0-0.3056879-0.0791779-0.6000643-0.2364044-0.8825636
			c-0.1577911-0.2833471-0.3772278-0.5005236-0.6594391-0.6526604
			C243.651535,8.4764452,243.3636627,8.4006596,243.0684357,8.4006596 M242.1420441,11.33113V9.0578451h0.7804718
			c0.2669525,0,0.4598083,0.021492,0.5796967,0.063343c0.119339,0.0421352,0.2143555,0.1150932,0.285614,0.2194395
			c0.070694,0.1049118,0.1063232,0.2160454,0.1063232,0.333683c0,0.1654272-0.0593719,0.3102112-0.1781464,0.4335041
			c-0.1182098,0.1230106-0.2754364,0.1922922-0.4711151,0.2069969c0.080307,0.0333681,0.1447906,0.0740891,0.1934204,0.1204653
			c0.0904846,0.0896416,0.2030334,0.2395163,0.3359528,0.4504719l0.2765503,0.4453812h-0.4473572l-0.2019043-0.3585672
			c-0.1583557-0.2813683-0.2867432-0.458107-0.3834534-0.5288029c-0.0673065-0.052597-0.1657104-0.0786133-0.2940979-0.0786133
			h-0.2154694V11.33113H242.1420441z M242.5085297,10.0518246h0.4450989c0.2126465,0,0.3574219-0.0319548,0.4354706-0.0950146
			c0.0774841-0.0636263,0.1159515-0.1476126,0.1159515-0.2519588c0-0.0670195-0.0186615-0.1272526-0.0559998-0.1806984
			c-0.037323-0.0531626-0.0893555-0.0927525-0.154953-0.1187677c-0.0667419-0.0265818-0.1894684-0.0393076-0.3687592-0.0393076
			h-0.4168091V10.0518246z"/>
	</g>
	<g>
		<path d="M273.4710388,10.1961527V8.1680918h-0.7715759V7.8144531h1.9469604v0.3536386h-0.7778931v2.0280609H273.4710388z
			 M274.912384,10.1961527V7.8144531h0.5845337l0.6020508,1.9023886l0.581604-1.9023886h0.5723572v2.3816996h-0.361908V8.1968307
			l-0.6142578,1.9993219h-0.3589783l-0.640564-2.0280609v2.0280609H274.912384z"/>
	</g>
</g>
</svg>
