<?xml version="1.0" encoding="UTF-8"?><svg id="Layer_1" xmlns="http://www.w3.org/2000/svg" viewBox="0 0 94.81 180"><defs><style>.cls-1,.cls-2{fill-rule:evenodd;}.cls-1,.cls-3{fill:#000000;}.cls-4,.cls-2{fill:#ffffff;}</style></defs><path class="cls-4" d="M64.26,0h14.59c.18,0,.32.14.32.32v1.04c0,.18-.14.32-.32.32h-14.59c-.18,0-.32-.14-.32-.32V.32c0-.18.14-.32.32-.32Z"/><rect class="cls-4" y="18.89" width="1.38" height="7.71" rx=".32" ry=".32"/><path class="cls-2" d="M.37,43.06l-.37-3.39v-6.68c0-.18.14-.32.32-.32h.74c.18,0,.32.14.32.32v10.07c0,.18-.14.32-.32.32h-.37c-.17,0-.3-.14-.32-.32Z"/><path class="cls-2" d="M.37,53.35l-.37,3.39v6.68c0,.17.14.32.32.32h.74c.18,0,.32-.14.32-.32v-10.07c0-.18-.14-.32-.32-.32h-.37c-.17,0-.3.14-.32.32Z"/><rect class="cls-4" x=".83" y="1.06" width="93.98" height="178.94" rx="16.43" ry="16.43"/><rect class="cls-4" x="6.05" y="6.73" width="83.54" height="168.94" rx="11.4" ry="11.4"/><path class="cls-1" d="M47.8,155.03c4.74,0,8.58,3.84,8.58,8.58s-3.84,8.58-8.58,8.58-8.58-3.84-8.58-8.58,3.84-8.58,8.58-8.58Z"/><path class="cls-1" d="M54.62,17.87h-13.63c-.95,0-1.73.78-1.73,1.73h0c0,.95.78,1.73,1.73,1.73h13.63c.95,0,1.73-.78,1.73-1.73h0c0-.95-.78-1.73-1.73-1.73Z"/><path class="cls-3" d="M9.31,32.59h77.02c.72,0,1.31.59,1.31,1.31v116.61c0,.72-.59,1.31-1.31,1.31H9.31c-.72,0-1.31-.59-1.31-1.31V33.9c0-.72.59-1.31,1.31-1.31Z"/><path class="cls-2" d="M64.58,70.28c-2.27-2.19-4.24-4.31-8.41-4.53-3.36-.15-4.9,1.9-8.04,1.97-2.93.07-2.71-2.27-8.78-1.61-5.27.58-9.87,5.85-9.51,13.24.37,7.97,5.92,19.01,11.12,19.01,3.66-.07,4.53-1.83,7.53-1.83,3.73,0,4.61,2.19,7.53,1.75,5.05-.73,9.8-8.7,9.8-11.26-2.78-1.46-5.56-3.95-5.92-8.12-.29-4.17,2.27-6.8,4.68-8.63Z"/><path class="cls-2" d="M47.1,66.33c-.37-2.92,1.61-9.29,8.56-10.24.8,4.9-3.22,10.53-8.56,10.24Z"/><path class="cls-2" d="M74.46,114.52c.09-1.03.71-2.57,2.24-2.57,1.65,0,2.04,1.62,2.04,2.57h-4.28ZM81.95,117.26c.06-.32.12-.91.12-1.59,0-3.16-1.42-6.38-5.16-6.38-4.01,0-5.87,3.57-5.87,6.82,0,4.01,2.27,6.52,6.2,6.52,1.56,0,3.01-.27,4.19-.83l-.47-2.69c-.97.38-1.95.56-3.19.56-1.68,0-3.16-.8-3.28-2.45l7.47.03h0ZM58.52,122.37h3.6v-7.35c0-.38.03-.74.12-1,.27-.74.86-1.48,1.86-1.48,1.3,0,1.83,1.12,1.83,2.74v7.08h3.6v-7.53c0-3.78-1.77-5.52-4.16-5.52-1.95,0-3.1,1.24-3.57,2.07h-.06l-.18-1.77h-3.13c.03,1.15.09,2.48.09,4.07v8.68h0ZM51.17,119.8c-1.51,0-2.36-1.62-2.36-3.81,0-1.89.68-3.81,2.39-3.81,1.62,0,2.3,1.92,2.3,3.78,0,2.3-.89,3.84-2.3,3.84h-.03ZM51.14,122.63c3.1,0,6.11-2.12,6.11-6.76,0-3.87-2.39-6.55-5.9-6.55-3.75,0-6.23,2.63-6.23,6.76s2.6,6.55,5.99,6.55h.03ZM32.6,122.37h3.6v-7.56c0-.29.03-.65.12-.86.27-.74.86-1.42,1.8-1.42,1.36,0,1.86,1.15,1.86,2.8v7.02h3.63v-7.44c0-3.87-1.77-5.61-4.07-5.61-.65,0-1.33.21-1.86.5-.59.32-1.06.77-1.45,1.33h-.03v-7.29h-3.6v18.51h0ZM23.04,107.82c.27-.06.77-.12,1.48-.12,1.83,0,2.83.94,2.83,2.57,0,1.77-1.18,2.83-3.1,2.83-.53,0-.91-.03-1.21-.09v-5.19h0ZM19.44,122.37h3.6v-6.32c.32.09.77.12,1.24.12,2.12,0,3.98-.62,5.19-1.86.97-.97,1.45-2.42,1.45-4.16s-.65-3.19-1.68-4.04c-1.06-.97-2.66-1.45-4.9-1.45s-3.78.18-4.9.38v17.33h0ZM15.57,107.96c1.27,0,2.07-.94,2.07-2.12-.03-1.21-.8-2.1-2.04-2.1s-2.04.89-2.04,2.1.8,2.12,2.01,2.12h0ZM17.4,122.37v-12.75h-3.63v12.75h3.63Z"/></svg>