<svg width="2500" height="679.9999999999999" xmlns="http://www.w3.org/2000/svg" xmlns:svg="http://www.w3.org/2000/svg">
 <defs>
  <style type="text/css">
   <![CDATA[
    .str0 {stroke:#000000;stroke-width:63}
    .str1 {stroke:#09098F;stroke-width:63}
    .fil5 {fill:none}
    .fil1 {fill:#000000}
    .fil2 {fill:#000000}
    .fil3 {fill:#4D66CC}
    .fil0 {fill:#576ECD}
    .fil4 {fill:#89A1D4}
   ]]>
  </style>
 </defs>
 <g>
  <title>Layer 1</title>
  <g id="Layer 1">
   <path id="svg_1" d="m2101.85846,338.42973c0,158 -99,329 -278,329c-184,0 -279,-173 -279,-329c0,-158 100,-330 279,-330c183,0 278,176 278,330zm-81,-2c0,-116 -33,-304 -198,-304c-163,0 -197,187 -197,304c0,44 4,84 12,120c19,87 74,182 185,182c163,0 198,-187 198,-302z" class="fil0"/>
   <path id="svg_2" d="m887.85846,603.42973c-34,45 -86,68 -119,67c-39,3 -94,-24 -94,-80c-2,-97 133,-148 215,-202l0,-81c1,-30 1,-56 -10,-71c-23,-33 -91,-19 -115,20c-11,13 -35,125 -81,87c-12,-20 -7,-44 20,-72c48,-50 94,-80 160,-77c92,8 96,93 93,154c0,43 0,81 -1,114l-1,109c12,73 47,38 63,33l-2,24c-38,43 -104,59 -128,-25zm1,-188c-73,29 -147,78 -147,153c0,86 94,64 146,-5l1,-148z" class="fil1"/>
   <path id="svg_3" d="m1225.85846,674.42973c-129,-2 -188,-141 -188,-244c0,-103 66,-236 201,-236c68,0 121,29 121,86c0,50 -16,56 -31,39c-26,-43 -43,-101 -104,-101c-96,0 -123,149 -125,208c-3,72 43,206 141,206c58,0 81,-8 115,-47l15,17c-27,39 -85,72 -145,72z" class="fil1"/>
   <path id="svg_4" d="m641.85846,650.42973l-204,0l0,-32c8,0 18,-1 31,-3c31,-4 32,-21 32,-54l-2,-439l-6,0l-177,518l-11,0l-172,-528l-4,0l-19,446c0,18 8,32 16,41c5,6 16,12 32,17c17,6 28,11 33,12l0,22l-182,0l0,-32c11,-1 22,-3 34,-6c12,-3 21,-8 27,-15c9,-8 10,-25 14,-42l13,-484c-8,-8 -17,-14 -28,-18c-10,-4 -21,-6 -32,-6l0,-25l134,0l162,471l163,-470l134,-1l0,31c-6,1 -15,2 -25,4c-11,3 -18,5 -23,7c-18,8 -16,27 -16,45l6,452c0,43 34,62 70,63l0,26z" class="fil2"/>
   <path id="svg_5" d="m2480.85846,412.42973c19,67 6,151 -43,198c-90,90 -230,73 -297,-10l-2,-123l29,0c-5,88 67,185 153,163c32,-8 85,-47 95,-79c18,-63 -4,-131 -59,-169c-15,-10 -37,-24 -57,-34c-20,-9 -38,-18 -52,-26c-29,-16 -52,-37 -68,-63c-29,-48 -37,-101 -16,-155c8,-21 19,-39 34,-56c14,-15 30,-27 49,-36c61,-27 159,-21 207,27l2,104l-18,0c-19,-79 -54,-125 -136,-121c-23,1 -50,17 -67,35c-16,18 -22,48 -22,74c0,46 31,91 67,111c46,28 97,45 142,77c27,20 49,48 59,83z" class="fil0"/>
  </g>
 </g>
</svg>